<svg id="_x33_0" enable-background="new 0 0 64 64" height="512" viewBox="0 0 64 64" width="512" xmlns="http://www.w3.org/2000/svg"><g><g><circle cx="26" cy="21" r="1" fill="#fff" /><path d="m58.244 44.496-.305-.838c-3.752-10.319-9.22-14.89-10.278-15.701-1.377-1.054-3.337-1.236-4.869-.472l-.95.475-.59-.885 2.279-2.658c2.236-2.61 3.469-5.94 3.469-9.378 0-3.492-1.267-6.862-3.565-9.489-2.531-2.892-6.185-4.55-10.026-4.55h-.553c-5.076 0-9.797 2.676-12.424 7.003-3.124.015-5.929 1.753-7.327 4.55l-.723 1.447h7.633c.157 7.474 2.008 11.283 2.09 11.447l.277.553h1.941l.692 1.73c.795 1.987 2.69 3.27 4.829 3.27.937 0 1.857-.255 2.662-.737l.26-.156.798 1.994-.064.032c-.027-.014-.046-.024-.053-.028l-.52-.26-3.323 2.216c-.195-.04-.397-.061-.604-.061-1.654 0-3 1.346-3 3 0 1.233.748 2.292 1.813 2.753-.617 3.161-.766 7.354-.802 9.247h-4.011c-.831 0-1.545.51-1.846 1.234l-.844-.563c-.402-.267-.847-.448-1.31-.556v-3.338h-2v3.223h-2v-3.223h-2v3.407c-1.161.414-2 1.514-2 2.816v4c0 1.302.839 2.402 2 2.816v1.184c0 1.654 1.346 3 3 3s3-1.346 3-3v-1.039c.265-.032.526-.082.778-.167l1.664-.555c.368.46.926.761 1.558.761h4v4h28v-16.991c.793-.33 1.6-.691 2.447-1.115zm-42.244 16.504c-.552 0-1-.448-1-1v-1h2v1c0 .552-.448 1-1 1zm3.144-4.103c-.203.069-.415.103-.631.103h-4.513c-.552 0-1-.448-1-1v-4c0-.552.448-1 1-1h4.092c.396 0 .779.116 1.109.336l1.799 1.199v3.744zm24.543-27.623c.872-.438 1.969-.335 2.758.271.318.243.655.53 1.008.857l-12.093 3.455c-.069-.108-.141-.211-.216-.309zm-1.758-22.408c1.98 2.263 3.071 5.165 3.071 8.173 0 .845-.096 1.68-.264 2.497l-9.969-7.67c-.449-.345-.932-.64-1.435-.893.815-2.232 2.548-4.047 4.778-4.94l.011-.004c1.438.659 2.741 1.618 3.808 2.837zm-9.073-3.866h.553c.692 0 1.375.077 2.045.2-1.825 1.223-3.232 2.996-3.994 5.071-.711-.178-1.444-.271-2.181-.271h-6.435c2.35-3.115 6.057-5 10.012-5zm-12.384 7h8.808c1.535 0 3.051.516 4.268 1.452l.711.548h-18.368c1.16-1.262 2.803-2 4.581-2zm16.387 4 7.266 5.59c-.503 1.274-1.208 2.47-2.112 3.526l-1.913 2.231-.946-1.419.293-.586c.362-.724.553-1.533.553-2.342s-.191-1.618-.57-2.376c-.501-1.002-1.508-1.624-2.627-1.624-.773 0-1.53.313-2.077.86l-.57.57-.433-.649c-.744-1.115-1.988-1.781-3.328-1.781h-8.282c-.044-.632-.073-1.299-.089-2zm-2.356 15.065 2.012-1.207-1.029-1.715-4.008 2.405c-.495.296-1.059.452-1.634.452-1.316 0-2.482-.79-2.971-2.013l-1.196-2.987h-2.013c-.344-.902-.984-2.927-1.362-6h8.093c.67 0 1.292.333 1.664.891l1.786 2.679 2.295-2.295c.427-.429 1.218-.321 1.519.278.223.447.341.947.341 1.447s-.118 1-.342 1.447l-.813 1.625 3.194 4.79-4.681 2.341zm-1.5 5.135c.426.34.997.954.997 1.8 0 .87-.227 1.489-.423 1.863l-1.623-.405c.023-.15.046-.301.046-.458 0-.654-.216-1.256-.573-1.749zm-4.003 1.8c.552 0 1 .448 1 1s-.448 1-1 1-1-.448-1-1 .448-1 1-1zm.829 3.869c.417-.121.793-.327 1.114-.602l2.057.514v3.754l.445.297c1.394.929 2.938 1.565 4.555 1.897v3.271h-8.987c.039-1.91.195-6.163.816-9.131zm-6.829 11.131h19v-2h-2v-3.022c.202.009.403.022.605.022h.114l.121.484c.223.893 1.021 1.516 1.941 1.516h2.511c1.192 0 2.326-.081 3.442-.233l-2.163 4.488c-.852 1.914-2.391 3.396-4.334 4.174-.948.379-1.946.571-2.968.571h-16.269zm30 10h-24v-2h10.269c1.278 0 2.526-.24 3.71-.714 2.431-.972 4.355-2.825 5.406-5.19l2.793-5.795c.603-.151 1.21-.33 1.822-.535zm-7.708-15h-2.512l-1.811-7.242-1.939.484 1.183 4.731c-1.845-.066-3.631-.575-5.213-1.524v-3.098c.386-.53 1-1.64 1-3.351 0-.083-.009-.161-.014-.242l13.04-3.726c2.24 2.552 4.773 6.43 6.718 11.467-3.775 1.793-6.773 2.501-10.452 2.501z" fill="#fff"/></g><g><g><path d="m16 47c-5.514 0-10-4.486-10-10s4.486-10 10-10 10 4.486 10 10-4.486 10-10 10zm0-15c-2.757 0-5 2.243-5 5s2.243 5 5 5 5-2.243 5-5-2.243-5-5-5z" fill="#f0bc5e"/></g></g><g><path d="m16 43c-3.309 0-6-2.691-6-6s2.691-6 6-6 6 2.691 6 6-2.691 6-6 6zm0-10c-2.206 0-4 1.794-4 4s1.794 4 4 4 4-1.794 4-4-1.794-4-4-4z" fill="#fff"/></g></g></svg>